<svg width="20" height="20" viewBox="0 0 20 20" fill="none" xmlns="http://www.w3.org/2000/svg">
<path d="M10.0012 9.86112C10.4217 9.86112 10.7812 9.7114 11.0798 9.41196C11.3784 9.11265 11.5277 8.75272 11.5277 8.33217C11.5277 7.91175 11.378 7.55223 11.0785 7.25362C10.7792 6.95501 10.4193 6.80571 9.99875 6.80571C9.57833 6.80571 9.21882 6.95543 8.92021 7.25487C8.6216 7.55418 8.47229 7.91411 8.47229 8.33467C8.47229 8.75508 8.62201 9.1146 8.92146 9.41321C9.22076 9.71182 9.58069 9.86112 10.0012 9.86112ZM10 16.5001C11.7962 14.8612 13.1249 13.3739 13.986 12.0382C14.8472 10.7027 15.2777 9.52328 15.2777 8.50008C15.2777 6.9048 14.7683 5.59855 13.7494 4.58133C12.7305 3.56425 11.4807 3.05571 10 3.05571C8.5193 3.05571 7.26951 3.56425 6.25062 4.58133C5.23173 5.59855 4.72229 6.9048 4.72229 8.50008C4.72229 9.52328 5.15979 10.7027 6.03479 12.0382C6.90979 13.3739 8.23153 14.8612 10 16.5001ZM10 18.3334C7.76389 16.4306 6.09375 14.6633 4.98958 13.0313C3.88542 11.3994 3.33333 9.88897 3.33333 8.50008C3.33333 6.41675 4.00347 4.75703 5.34375 3.52091C6.68403 2.2848 8.23611 1.66675 10 1.66675C11.7639 1.66675 13.316 2.2848 14.6562 3.52091C15.9965 4.75703 16.6667 6.41675 16.6667 8.50008C16.6667 9.88897 16.1146 11.3994 15.0104 13.0313C13.9062 14.6633 12.2361 16.4306 10 18.3334Z" fill="#E0E0E0"/>
</svg>
