<svg width="20" height="20" viewBox="0 0 20 20" fill="none" xmlns="http://www.w3.org/2000/svg">
<path d="M3.05561 16.6666C2.68061 16.6666 2.35534 16.5289 2.07978 16.2535C1.80436 15.9779 1.66666 15.6526 1.66666 15.2776V4.72221C1.66666 4.34721 1.80436 4.02193 2.07978 3.74638C2.35534 3.47096 2.68061 3.33325 3.05561 3.33325H16.9444C17.3194 3.33325 17.6446 3.47096 17.9202 3.74638C18.1956 4.02193 18.3333 4.34721 18.3333 4.72221V15.2776C18.3333 15.6526 18.1956 15.9779 17.9202 16.2535C17.6446 16.5289 17.3194 16.6666 16.9444 16.6666H3.05561ZM9.99999 10.5276L3.05561 6.04159V15.2776H16.9444V6.04159L9.99999 10.5276ZM9.99999 9.13888L16.8889 4.72221H3.12499L9.99999 9.13888ZM3.05561 6.04159V4.72221V15.2776V6.04159Z" fill="#E0E0E0"/>
</svg>
