<svg width="20" height="20" viewBox="0 0 20 20" fill="none" xmlns="http://www.w3.org/2000/svg">
<path d="M3.41667 17.5C3.15472 17.5 2.93646 17.4127 2.76188 17.2381C2.58729 17.0635 2.5 16.8453 2.5 16.5833V13.5833C2.5 13.3851 2.56715 13.206 2.70146 13.0458C2.83562 12.8857 3.00458 12.7778 3.20833 12.7223L5.81937 12.1667C6.00174 12.1389 6.18743 12.154 6.37646 12.2119C6.56535 12.2697 6.72687 12.3703 6.86104 12.514L8.83333 14.5277C9.42597 14.2037 9.99076 13.8345 10.5277 13.4202C11.0648 13.0058 11.5764 12.5509 12.0625 12.0556C12.5393 11.5926 12.9756 11.1053 13.3715 10.5938C13.7673 10.0822 14.1319 9.53708 14.4652 8.95833L12.406 6.87813C12.2927 6.76493 12.2176 6.62965 12.1806 6.47229C12.1435 6.31479 12.1392 6.13257 12.1677 5.92562L12.7223 3.20833C12.7685 3.00931 12.8634 2.84146 13.0069 2.70479C13.1505 2.56826 13.3195 2.5 13.514 2.5H16.5833C16.8453 2.5 17.0635 2.58729 17.2381 2.76188C17.4127 2.93646 17.5 3.15472 17.5 3.41667C17.5 5.06944 17.1146 6.73611 16.3438 8.41667C15.5729 10.0972 14.4792 11.6458 13.0625 13.0625C11.6458 14.4792 10.0972 15.5729 8.41667 16.3438C6.73611 17.1146 5.06944 17.5 3.41667 17.5ZM15.139 7.66667C15.4491 6.93056 15.6806 6.25465 15.8333 5.63896C15.9861 5.02312 16.0741 4.43979 16.0973 3.88896H14L13.5556 6.06938L15.139 7.66667ZM7.52771 15.1806L5.97229 13.5694L3.88896 14V16.0973C4.49535 16.0648 5.1134 15.9676 5.74313 15.8056C6.37271 15.6435 6.96757 15.4352 7.52771 15.1806Z" fill="#E0E0E0"/>
</svg>
