<svg width="24" height="24" viewBox="0 0 24 24" fill="none" xmlns="http://www.w3.org/2000/svg">
<g clip-path="url(#clip0_49_487)">
<path d="M8.02742 18.9047C8.02742 19.0018 7.91613 19.0794 7.77581 19.0794C7.61613 19.094 7.50484 19.0163 7.50484 18.9047C7.50484 18.8076 7.61613 18.7299 7.75645 18.7299C7.90161 18.7153 8.02742 18.793 8.02742 18.9047ZM6.52258 18.6862C6.48871 18.7833 6.58548 18.895 6.73065 18.9241C6.85645 18.9726 7.00161 18.9241 7.03064 18.827C7.05968 18.7299 6.96774 18.6182 6.82258 18.5745C6.69677 18.5406 6.55645 18.5891 6.52258 18.6862ZM8.66129 18.6037C8.52097 18.6376 8.42419 18.7299 8.43871 18.8415C8.45323 18.9386 8.57903 19.0018 8.72419 18.9678C8.86452 18.9338 8.96129 18.8415 8.94677 18.7445C8.93226 18.6522 8.80161 18.5891 8.66129 18.6037ZM11.8452 0C5.13387 0 0 5.11212 0 11.8458C0 17.2297 3.37742 21.837 8.20161 23.4585C8.82097 23.5701 9.03871 23.1866 9.03871 22.871C9.03871 22.57 9.02419 20.9097 9.02419 19.8902C9.02419 19.8902 5.6371 20.6184 4.92581 18.4435C4.92581 18.4435 4.37419 17.0307 3.58065 16.6666C3.58065 16.6666 2.47258 15.9044 3.65806 15.9189C3.65806 15.9189 4.8629 16.016 5.52581 17.1715C6.58548 19.0455 8.36129 18.5066 9.05323 18.1861C9.16452 17.4094 9.47903 16.8705 9.82742 16.5501C7.12258 16.2491 4.39355 15.8558 4.39355 11.1855C4.39355 9.85043 4.76129 9.18046 5.53548 8.32601C5.40968 8.01045 4.99839 6.70936 5.66129 5.02959C6.67258 4.71403 9 6.34039 9 6.34039C9.96774 6.06852 11.0081 5.92773 12.0387 5.92773C13.0694 5.92773 14.1097 6.06852 15.0774 6.34039C15.0774 6.34039 17.4048 4.70917 18.4161 5.02959C19.079 6.71421 18.6677 8.01045 18.5419 8.32601C19.3161 9.18532 19.7903 9.85528 19.7903 11.1855C19.7903 15.8704 16.9403 16.2442 14.2355 16.5501C14.6806 16.9336 15.0581 17.6618 15.0581 18.8027C15.0581 20.4388 15.0435 22.4632 15.0435 22.8613C15.0435 23.1769 15.2661 23.5604 15.8806 23.4488C20.7194 21.837 24 17.2297 24 11.8458C24 5.11212 18.5564 0 11.8452 0ZM4.70323 16.7443C4.64032 16.7928 4.65484 16.9045 4.7371 16.9967C4.81452 17.0744 4.92581 17.1084 4.98871 17.0453C5.05161 16.9967 5.0371 16.8851 4.95484 16.7928C4.87742 16.7151 4.76613 16.6812 4.70323 16.7443ZM4.18064 16.351C4.14677 16.4141 4.19516 16.4918 4.29194 16.5404C4.36935 16.5889 4.46613 16.5743 4.5 16.5064C4.53387 16.4433 4.48548 16.3656 4.38871 16.317C4.29194 16.2879 4.21452 16.3025 4.18064 16.351ZM5.74839 18.0793C5.67097 18.1425 5.7 18.2881 5.81129 18.3803C5.92258 18.492 6.0629 18.5066 6.12581 18.4289C6.18871 18.3658 6.15968 18.2201 6.0629 18.1279C5.95645 18.0162 5.81129 18.0017 5.74839 18.0793ZM5.19677 17.3657C5.11935 17.4142 5.11935 17.5405 5.19677 17.6521C5.27419 17.7638 5.40484 17.8123 5.46774 17.7638C5.54516 17.7007 5.54516 17.5744 5.46774 17.4628C5.4 17.3511 5.27419 17.3026 5.19677 17.3657Z" fill="#E6E6FA"/>
</g>
<defs>
<clipPath id="clip0_49_487">
<rect width="24" height="24" fill="white"/>
</clipPath>
</defs>
</svg>
