<svg width="24" height="24" viewBox="0 0 24 24" fill="none" xmlns="http://www.w3.org/2000/svg">
<path d="M12 0C18.6273 0 23.9998 5.37277 24 12C24 18.6274 18.6274 24 12 24C5.37266 23.9999 0 18.6274 0 12C0.000230871 5.37283 5.37281 9.35103e-05 12 0ZM12.8701 4.23535C11.6268 4.23545 10.9047 4.70871 10.377 5.40625C9.87963 6.06739 9.86133 7.12899 9.86133 7.81445V9.37402H8.25391V11.6973H9.86133V19.7646H12.8701V11.6973H15.2549L15.4307 9.37402H12.8701V7.55957C12.8703 6.93502 13.429 6.71094 14.0537 6.71094C14.6784 6.711 15.3457 6.9043 15.3457 6.9043L15.7461 4.52637C15.7461 4.52637 14.8962 4.23535 12.8701 4.23535Z" fill="#E6E6FA"/>
</svg>
