<svg width="24" height="24" viewBox="0 0 24 24" fill="none" xmlns="http://www.w3.org/2000/svg">
<path d="M12 0C18.6274 0 24 5.37258 24 12C24 18.6274 18.6274 24 12 24C5.37258 24 0 18.6274 0 12C0 5.37258 5.37258 0 12 0ZM6.125 7C5.82137 7.00001 5.5581 7.10845 5.33496 7.3252C5.11187 7.5422 5 7.79844 5 8.09375V16.4062C5.00003 16.7015 5.11191 16.9578 5.33496 17.1748C5.55809 17.3915 5.8214 17.5 6.125 17.5H17.375C17.6786 17.5 17.9419 17.3915 18.165 17.1748C18.3881 16.9578 18.5 16.7015 18.5 16.4062V8.09375C18.5 7.79844 18.3881 7.5422 18.165 7.3252C17.9419 7.10845 17.6786 7.00001 17.375 7H6.125ZM17.375 16.4062H6.125V9.13281L11.75 12.665L17.375 9.13281V16.4062ZM17.3301 8.09375L11.75 11.5723L6.18164 8.09375H17.3301Z" fill="#E6E6FA"/>
</svg>
