<svg width="24" height="24" viewBox="0 0 24 24" fill="none" xmlns="http://www.w3.org/2000/svg">
<g clip-path="url(#clip0_49_494)">
<path d="M20.65 18.172H20.476V17.819H20.696C20.81 17.819 20.94 17.837 20.94 17.986C20.94 18.157 20.809 18.171 20.65 18.171V18.172Z" fill="#E6E6FA"/>
<path d="M20.639 17.366C20.166 17.374 19.789 17.764 19.796 18.237C19.804 18.71 20.194 19.088 20.667 19.08H20.689C21.152 19.07 21.519 18.687 21.51 18.224V18.21C21.502 17.737 21.112 17.359 20.639 17.367V17.366ZM20.949 18.744L20.664 18.295L20.66 18.29H20.476V18.744H20.327V17.701H20.725C20.971 17.701 21.092 17.796 21.092 17.995C21.092 18.001 21.092 18.007 21.092 18.013C21.091 18.16 20.997 18.279 20.803 18.279L21.111 18.744H20.951H20.949Z" fill="#E6E6FA"/>
<path d="M12 0C5.373 0 0 5.373 0 12C0 18.627 5.373 24 12 24C18.627 24 24 18.627 24 12C24 5.373 18.627 0 12 0ZM19.037 18.056C19.029 18.634 18.554 19.098 17.975 19.09H5.76C5.183 19.096 4.709 18.633 4.702 18.056V5.79C4.709 5.213 5.182 4.75 5.76 4.757H17.975C18.553 4.748 19.028 5.211 19.037 5.789V18.056ZM20.687 19.192C20.147 19.197 19.705 18.764 19.7 18.224C19.695 17.685 20.128 17.243 20.668 17.237H20.687C21.219 17.242 21.65 17.673 21.655 18.205C21.66 18.744 21.227 19.186 20.687 19.192ZM14.367 9.96C13.544 9.93 12.771 10.354 12.355 11.065H12.327V10.13H10.288V16.97H12.412V13.587C12.412 12.694 12.581 11.831 13.688 11.831C14.778 11.831 14.792 12.852 14.792 13.645V16.971H16.916V13.219C16.916 11.376 16.52 9.961 14.367 9.961V9.96ZM6.827 16.97H8.953V10.13H6.827V16.97ZM7.891 6.73C7.21 6.73 6.658 7.282 6.658 7.963C6.658 8.644 7.21 9.195 7.891 9.195C8.572 9.195 9.124 8.643 9.124 7.962C9.124 7.281 8.572 6.729 7.891 6.73Z" fill="#E6E6FA"/>
</g>
<defs>
<clipPath id="clip0_49_494">
<rect width="24" height="24" fill="white"/>
</clipPath>
</defs>
</svg>
